# AST/ASF file generated using VICON BodyLanguage
# -----------------------------------------------
:version 1.10
:name VICON
:units
  mass 1.0
  length 0.45
  angle deg
:documentation
   .ast/.asf automatically generated from VICON data using
   VICON BodyBuilder and BodyLanguage model FoxedUp or BRILLIANT.MOD
:root
   order TX TY TZ RX RY RZ
   axis XYZ
   position 0 0 0  
   orientation 0 0 0 
:bonedata
  begin
     id 1 
     name lhipjoint
     direction 0.646657 -0.683706 0.338203 
     length 2.4948 
     axis 0 0 0  XYZ
  end
  begin
     id 2 
     name lfemur
     direction 0.34202 -0.939693 0  
     length 6.79491  
     axis 0 0 20  XYZ
    dof rx ry rz
    limits (-160.0 20.0)
           (-70.0 70.0)
           (-60.0 70.0)
  end
  begin
     id 3 
     name ltibia
     direction 0.34202 -0.939693 0   
     length 7.56807   
     axis 0 0 20   XYZ
    dof rx
    limits (-10.0 170.0)
  end
  begin
     id 4 
     name lfoot
     direction 0.0679796 -0.186772 0.980048   
     length 2.53018   
     axis -90 7.62852e-016 20   XYZ
    dof rx rz
    limits (-45.0 90.0)
           (-70.0 20.0)
  end
  begin
     id 5 
     name ltoes
     direction 1.53625e-011 -4.21881e-011 1   
     length 1.26912   
     axis -90 7.62852e-016 20   XYZ
    dof rx
    limits (-90.0 20.0)
  end
  begin
     id 6 
     name rhipjoint
     direction -0.618868 -0.704065 0.348274   
     length 2.42265  
     axis 0 0 0  XYZ 
  end
  begin
     id 7 
     name rfemur
     direction -0.34202 -0.939693 0   
     length 6.73814   
     axis 0 0 -20   XYZ
    dof rx ry rz
    limits (-160.0 20.0)
           (-70.0 70.0)
           (-70.0 60.0)
  end
  begin
     id 8 
     name rtibia
     direction -0.34202 -0.939693 0   
     length 7.66799   
     axis 0 0 -20   XYZ
    dof rx
    limits (-10.0 170.0)
 end
 begin
     id 9 
     name rfoot
     direction -0.0727352 -0.199838 0.977125   
     length 2.57224  
     axis -90 -7.62852e-016 -20   XYZ
    dof rx rz
    limits (-45.0 90.0)
           (-20.0 70.0)
  end
  begin
     id 10 
     name rtoes
     direction -1.53501e-011 -4.21858e-011 1   
     length 1.28858   
     axis -90 -7.62852e-016 -20   XYZ
    dof rx
    limits (-90.0 20.0)
  end
  begin
     id 11 
     name lowerback
     direction -0.0172471 0.995767 -0.0902851   
     length 2.20206   
     axis 0 0 0   XYZ
    dof rx ry rz
    limits (-20.0 45.0)
           (-30.0 30.0)
           (-30.0 30.0)
  end
  begin
     id 12 
     name upperback
     direction -0.000110737 0.999714 0.0239043   
     length 2.19523   
     axis 0 0 0   XYZ
    dof rx ry rz
    limits (-20.0 45.0)
           (-30.0 30.0)
           (-30.0 30.0)
  end
  begin
     id 13 
     name thorax
     direction 0.00704869 0.997783 0.0661741   
     length 2.21977   
     axis 0 0 0   XYZ
    dof rx ry rz
    limits (-20.0 45.0)
           (-30.0 30.0)
           (-30.0 30.0)
  end
  begin
     id 14 
     name lowerneck
     direction -0.00407501 0.995527 0.0943846   
     length 1.83142   
     axis 0 0 0   XYZ
    dof rx ry rz
    limits (-20.0 45.0)
           (-30.0 30.0)
           (-30.0 30.0)
  end
  begin
     id 15 
     name upperneck
     direction 0.0640586 0.986486 -0.150807   
     length 1.84616   
     axis 0 0 0   XYZ
    dof rx ry rz
    limits (-20.0 45.0)
           (-30.0 30.0)
           (-30.0 30.0)
  end
  begin
     id 16
     name head
     direction 0.0188017 0.99791 -0.0618239  
     length 1.85932  
     axis 0 0 0   XYZ
    dof rx ry rz
    limits (-20.0 45.0)
           (-30.0 30.0)
           (-30.0 30.0)
  end
  begin
     id 17 
     name lclavicle
     direction 0.976074 0.206905 0.066852  
     length 3.81043  
     axis 0 0 0   XYZ
    dof ry rz
    limits (-20.0 10.0)
           (0.0 20.0)
  end
  begin
     id 18 
     name lhumerus
     direction 1 -4.48971e-011 1.86916e-027   
     length 5.37587   
     axis 180 -30 -90   XYZ
    dof rx ry rz
    limits (-60.0 90.0)
           (-90.0 90.0)
           (-90.0 90.0)
  end
  begin
     id 19
     name lradius
     direction 1 -4.48968e-011 1.69187e-027   
     length 3.35977   
     axis 180 -30 -90   XYZ
    dof rx
    limits (-10.0 170.0)
  end
  begin
     id 20
     name lwrist
     direction 1 -4.48968e-011 5.8978e-027   
     length 1.67988   
     axis -3.27506e-015 90 90   XYZ
    dof ry
    limits (-180.0 0.0)
 end
  begin
     id 21 
     name lhand
     direction 1 -4.49028e-011 1.18071e-026   
     length 0.561859   
     axis -7.52654e-015 90 90   XYZ
    dof rx rz
    limits (-90.0 90.0)
           (-45.0 45.0)
  end
  begin
     id 22 
     name lfingers
     direction 1 -4.48927e-011 2.35758e-026   
     length 0.452985   
     axis -1.50534e-014 90 90   XYZ
    dof rx
    limits (0.0 90.0)
  end
  begin
     id 23
     name lthumb
     direction 0.707107 -6.34898e-011 0.707107   
     length 0.650399   
     axis -90 45 5.69224e-014   XYZ
    dof rx rz
    limits (-45.0 45.0)
           (-45.0 45.0)
  end
  begin
     id 24 
     name rclavicle
     direction -0.988403 0.151789 0.00439714   
     length 3.6942  
     axis 0 0 0   XYZ 
    dof ry rz
    limits (-10.0 20.0)
           (-20.0 0.0)
  end
  begin
     id 25 
     name rhumerus
     direction -1 -4.48978e-011 1.62495e-027  
     length 5.22819   
     axis 180 30 90   XYZ
    dof rx ry rz
    limits (-90.0 60.0)
           (-90.0 90.0)
           (-90.0 90.0)
  end
  begin
     id 26 
     name rradius
     direction -1 -4.48961e-011 3.47796e-027   
     length 3.40764   
     axis 180 30 90   XYZ
    dof rx
    limits (-10.0 170.0)
  end
  begin
     id 27 
     name rwrist
     direction -1 -4.48949e-011 5.89602e-027   
     length 1.70382   
     axis -3.27506e-015 -90 -90   XYZ
    dof ry
    limits (-180.0 0.0)
  end
  begin
     id 28
     name rhand
     direction -1 -4.48977e-011 1.17973e-026   
     length 0.583255   
     axis -7.52654e-015 -90 -90   XYZ
    dof rx rz
    limits (-90.0 90.0)
           (-45.0 45.0)
  end
  begin
     id 29
     name rfingers
     direction -1 -4.49099e-011 2.36408e-026   
     length 0.470235   
     axis -1.50534e-014 -90 -90   XYZ
    dof rx
    limits (0.0 90.0)
  end
  begin
     id 30
     name rthumb
     direction -0.707107 -6.35011e-011 0.707107   
     length 0.675167   
     axis -90 -45 -5.69224e-014   XYZ
    dof rx rz
    limits (-45.0 45.0)
           (-45.0 45.0)
  end
:hierarchy
  begin
    root lhipjoint rhipjoint lowerback
    lhipjoint lfemur
    lfemur ltibia
    ltibia lfoot
    lfoot ltoes
    rhipjoint rfemur
    rfemur rtibia
    rtibia rfoot
    rfoot rtoes
    lowerback upperback
    upperback thorax
    thorax lowerneck lclavicle rclavicle
    lowerneck upperneck
    upperneck head
    lclavicle lhumerus
    lhumerus lradius
    lradius lwrist
    lwrist lhand lthumb
    lhand lfingers
    rclavicle rhumerus
    rhumerus rradius
    rradius rwrist
    rwrist rhand rthumb
    rhand rfingers
  end

#!OML:ASF G:\JayActor3\Patient Classification 1\Patient 1\Session 2\male.ASF
:FULLY-SPECIFIED
:DEGREES
1043
root -18.5812 16.0932 -4.57905 947.015 80.4879 -856.285
lowerback 2.66098 1.65169 3.37144
upperback 1.88254 2.29582 -0.899899
thorax 0.611528 1.19837 -2.85751
lowerneck -9.73731 -6.94817 -7.01076
upperneck -2.87769 -8.49291 14.5221
head 1.71789 -3.81111 5.1149
rclavicle -1.66979e-014 3.18055e-015
rhumerus -29.0272 20.9691 -95.3301
rradius 57.4931
rwrist -19.9069
rhand -30.0869 2.59857
rfingers 7.12502
rthumb -3.40141 -27.354
lclavicle -1.66979e-014 3.18055e-015
lhumerus -43.9495 14.9218 67.8742
lradius 15.9381
lwrist 3.66098
lhand -20.6305 16.152
lfingers 7.12502
lthumb 5.73111 46.0545
rfemur 18.5947 -4.20823 29.3976
rtibia 25.4555
rfoot -8.34259 -6.28641
rtoes 8.36917
lfemur -41.0009 3.97138 -15.458
ltibia 39.3157
lfoot -5.29594 0.787602
ltoes -8.78283
1044
root -18.3471 16.1014 -4.60988 948.617 80.7429 -854.465
lowerback 2.71629 1.69461 3.2369
upperback 1.84223 2.35246 -1.02323
thorax 0.543031 1.22427 -2.91258
lowerneck -9.77024 -6.90103 -7.06017
upperneck -2.53159 -8.46913 14.7149
head 1.83559 -3.7854 5.1773
rclavicle 1.64991e-014 1.59028e-015
rhumerus -29.9364 20.7917 -96.0529
rradius 56.2417
rwrist -19.8487
rhand -30.0091 2.45078
rfingers 7.12502
rthumb -3.32629 -27.503
lclavicle 1.64991e-014 1.59028e-015
lhumerus -43.4737 14.9949 68.475
lradius 16.2395
lwrist 4.41426
lhand -21.1678 16.2542
lfingers 7.12502
lthumb 5.21234 46.1701
rfemur 17.6985 -4.41696 28.9535
rtibia 28.3124
rfoot -6.3958 -7.23889
rtoes 10.4749
lfemur -40.4115 4.4225 -15.4286
ltibia 40.3056
lfoot -5.49688 0.619166
ltoes -7.24053
1045
root -18.1134 16.1151 -4.64249 950.54 81.0734 -852.327
lowerback 2.7539 1.72965 3.07567
upperback 1.80155 2.3972 -1.14435
thorax 0.481938 1.24418 -2.94971
lowerneck -9.81956 -6.83204 -7.09385
upperneck -2.15467 -8.42104 14.8835
head 1.96019 -3.74656 5.23104
rclavicle -3.47873e-014 -1.43125e-014
rhumerus -30.7619 20.7273 -96.7735
rradius 54.8305
rwrist -19.809
rhand -29.8199 2.26694
rfingers 7.12502
rthumb -3.1435 -27.6896
lclavicle -3.47873e-014 -1.43125e-014
lhumerus -43.035 14.9352 69.2201
lradius 16.7102
lwrist 5.39963
lhand -21.6691 16.3843
lfingers 7.12502
lthumb 4.72824 46.3115
rfemur 16.6772 -4.55741 28.4451
rtibia 31.333
rfoot -4.28365 -8.35188
rtoes 12.6589
lfemur -39.6585 4.94013 -15.4537
ltibia 41.0959
lfoot -5.81664 0.445096
ltoes -5.44171
1046
root -17.8807 16.1335 -4.67838 952.174 81.4338 -850.526
lowerback 2.73251 1.72176 2.87736
upperback 1.75547 2.38196 -1.27864
thorax 0.44285 1.23419 -2.97661
lowerneck -9.86815 -6.74259 -7.10714
upperneck -1.77899 -8.34764 15.0379
head 2.07976 -3.69515 5.27957
rclavicle -1.15295e-014 2.06736e-014
rhumerus -31.4887 20.7352 -97.4832
rradius 53.2707
rwrist -19.7448
rhand -29.457 2.02203
rfingers 7.12502
rthumb -2.79309 -27.9394
lclavicle -1.15295e-014 2.06736e-014
lhumerus -42.6244 14.7761 70.0703
lradius 17.3323
lwrist 6.54129
lhand -22.1315 16.5382
lfingers 7.12502
lthumb 4.28178 46.4749
rfemur 15.4903 -4.69137 27.8586
rtibia 34.4961
rfoot -2.10103 -9.59217
rtoes 14.9634
lfemur -38.8105 5.38324 -15.5642
ltibia 41.6831
lfoot -6.22966 0.3124
ltoes -3.59448
1047
root -17.65 16.1562 -4.71608 953.877 81.8964 -848.684
lowerback 2.68365 1.70416 2.59845
upperback 1.70843 2.35164 -1.42845
thorax 0.414394 1.21642 -2.97298
lowerneck -9.91538 -6.6335 -7.09387
upperneck -1.42441 -8.24783 15.1782
head 2.18795 -3.63103 5.32224
rclavicle 2.98177e-015 3.33958e-014
rhumerus -32.1025 20.7782 -98.1657
rradius 51.5726
rwrist -19.633
rhand -28.8968 1.72042
rfingers 7.12502
rthumb -2.25203 -28.2474
lclavicle 2.98177e-015 3.33958e-014
lhumerus -42.2208 14.5623 70.9796
lradius 18.0618
lwrist 7.7277
lhand -22.5623 16.7098
lfingers 7.12502
lthumb 3.86578 46.6545
rfemur 14.1591 -4.72814 27.1836
rtibia 37.7733
rfoot 0.0188371 -11.0018
rtoes 17.4029
lfemur -37.8411 5.7905 -15.7547
ltibia 42.0694
lfoot -6.72505 0.269726
ltoes -1.94044
1048
root -17.4218 16.1824 -4.7549 955.457 82.4715 -846.979
lowerback 2.62727 1.67557 2.20116
upperback 1.66737 2.30492 -1.59775
thorax 0.391314 1.19016 -2.92223
lowerneck -9.95207 -6.51105 -7.05598
upperneck -1.11199 -8.12753 15.3063
head 2.27794 -3.55804 5.35991
rclavicle 3.45885e-014 -4.13472e-014
rhumerus -32.608 20.8029 -98.7989
rradius 49.7609
rwrist -19.4269
rhand -28.192 1.39934
rfingers 7.12502
rthumb -1.57133 -28.5746
lclavicle 3.45885e-014 -4.13472e-014
lhumerus -41.8004 14.3348 71.9108
lradius 18.8536
lwrist 8.84927
lhand -22.9664 16.8777
lfingers 7.12502
lthumb 3.47558 46.8291
rfemur 12.7017 -4.6826 26.3982
rtibia 41.1249
rfoot 1.8493 -12.5722
rtoes 19.6271
lfemur -36.7506 6.14361 -16.0587
ltibia 42.2557
lfoot -7.26719 0.310715
ltoes -0.69226
1049
root -17.1976 16.2111 -4.79365 956.73 83.1482 -845.564
lowerback 2.60946 1.63347 1.67407
upperback 1.63956 2.23951 -1.78571
thorax 0.35516 1.15427 -2.81845
lowerneck -9.99993 -6.3806 -6.99819
upperneck -0.836108 -7.99304 15.4253
head 2.356 -3.4781 5.39317
rclavicle -4.01545e-014 7.95139e-015
rhumerus -33.01 20.7515 -99.3599
rradius 47.8585
rwrist -19.0953
rhand -27.3813 1.08697
rfingers 7.12502
rthumb -0.788365 -28.8913
lclavicle -4.01545e-014 7.95139e-015
lhumerus -41.3337 14.0816 72.8614
lradius 19.6755
lwrist 9.87842
lhand -23.3886 17.0316
lfingers 7.12502
lthumb 3.06785 46.9892
rfemur 11.1536 -4.59393 25.5028
rtibia 44.5035
rfoot 3.20785 -14.1746
rtoes 21.3627
lfemur -35.5364 6.44301 -16.4877
ltibia 42.253
lfoot -7.8419 0.406403
ltoes 0.077482
